<svg xmlns="http://www.w3.org/2000/svg" viewBox="0 0 144.73 66.1"><defs><style>.cls-1{fill:#fff;}.cls-2{fill:#231f20;}.cls-3{fill:#a90533;}</style></defs><title>Asset 1</title><g id="Layer_2" data-name="Layer 2"><g id="Layer_1-2" data-name="Layer 1"><path class="cls-1" d="M20,50.72l-.3-.16C19.58,50.5,0,40.31,0,16.58H0V0H41.17V16.58c0,23.74-19.57,33.92-19.71,34h0l-.87.45L20,50.72Z"/><path class="cls-1" d="M39.93,16h0V1.24H1.25V16h0v.62c0,23,19,32.85,19.05,32.88l.29.15.29-.15c.06,0,19-9.92,19.05-32.88V16Z"/><path class="cls-2" d="M27.57,16a3.27,3.27,0,0,1,.49,1.24c.21,1.25-.4,2.58-2.69,2.7,0,1.88-.5,2.64-2.88,2.69.21,2-.84,2.64-2,2.64s-2.17-.65-2-2.64c-2.38,0-2.84-.81-2.88-2.69-2.29-.12-2.9-1.44-2.69-2.7A3.23,3.23,0,0,1,13.47,16H1.25v.62c0,23,19,32.85,19.05,32.88l.29.15.29-.15c.06,0,19-9.92,19.05-32.88V16ZM11.72,37a2.19,2.19,0,0,0,.89-1.42c.11-.62.24-.87.57-.88s.46.27.56.88A2.18,2.18,0,0,0,14.62,37c.28.15,1.2.17,1,.71-.12.24-.29.74-.54.52s-.68-.8-.85-.84-.14.22-.07.31.39.53.55.72a.52.52,0,0,1-.09.84c-.36.17-.74,0-.73-.24s-.17-1.14-.33-1.14-.13.22-.12.46c-.05.5.28.9.24,1.15s-.1.51-.53.51-.49-.26-.53-.51.29-.66.24-1.15c0-.24,0-.46-.11-.46s-.34.84-.32,1.14-.37.41-.73.24a.53.53,0,0,1-.09-.84c.17-.19.46-.61.55-.72s.09-.34-.07-.31-.6.61-.85.84-.42-.28-.54-.52c-.19-.54.73-.56,1-.71ZM12,35.45c.29,0,.15.27.11.54s-.1.29-.39-.08,0-.42.27-.45Zm2.27,0c.31,0,.55.08.27.46s-.35.35-.39.09-.18-.57.12-.54Zm13.5,2.43c-.16,0-.34.84-.32,1.14s-.37.41-.73.24a.53.53,0,0,1-.09-.84c.17-.19.46-.61.56-.72s.09-.34-.07-.31-.6.61-.85.84-.42-.28-.54-.52c-.19-.54.73-.56,1-.71a2.18,2.18,0,0,0,.89-1.42c.11-.62.24-.87.57-.88s.45.27.56.88A2.19,2.19,0,0,0,29.66,37c.28.15,1.2.17,1,.71-.13.24-.29.74-.54.52s-.68-.8-.85-.84-.14.22-.07.31.39.53.55.72a.52.52,0,0,1-.1.84c-.36.17-.74,0-.73-.24s-.17-1.14-.33-1.14-.13.22-.12.46c-.05.5.28.9.24,1.15s-.09.51-.53.51-.49-.26-.53-.51.29-.66.24-1.15c0-.24,0-.46-.12-.46Zm-.73-2.46c.29,0,.14.27.11.54s-.1.29-.39-.08,0-.42.27-.45Zm2.27,0c.32,0,.55.08.27.46s-.36.35-.39.09-.18-.57.11-.54Zm.27-14.68c-.28.38-.36.35-.39.08s-.18-.57.11-.54.55.09.27.46Zm-2.54-.49c.29,0,.14.27.11.54s-.1.3-.39-.08,0-.43.27-.46Zm-.31,1.58a2.17,2.17,0,0,0,.89-1.41c.11-.62.24-.88.57-.89s.45.27.56.89a2.17,2.17,0,0,0,.89,1.41c.28.15,1.2.17,1,.71-.13.25-.29.74-.54.52s-.68-.8-.85-.83-.14.23-.07.3.39.53.55.72a.53.53,0,0,1-.1.85c-.36.17-.74-.05-.73-.24s-.17-1.14-.33-1.14-.13.22-.12.46c-.05.5.28.89.24,1.15s-.09.52-.53.51-.49-.26-.53-.51.29-.65.24-1.15c0-.24,0-.46-.12-.46s-.34.84-.32,1.14-.37.41-.73.24a.53.53,0,0,1-.09-.84c.17-.2.46-.61.56-.73s.09-.34-.07-.3-.6.61-.85.83-.42-.27-.54-.52c-.19-.54.73-.56,1-.71Zm1.45,6c-.21-2.12,1.13-2.73,2.71-2.61-.21-2.12.88-2.81,2.76-2.73-.25-2.48,1.42-2.77,2.72-2.69a2.29,2.29,0,0,1,2-2.7h.29a35.28,35.28,0,0,1-6.37,20,2.06,2.06,0,0,1-1.52-2.52A2.18,2.18,0,0,1,28.16,32a2.15,2.15,0,0,1-2.71-1.63c-.21-1.5,1-2.4,2.76-2.4Zm-6.39,0c.32,0,.55.08.27.45s-.36.35-.39.08-.18-.57.11-.53Zm-2.27,0c.29,0,.15.27.11.54s-.1.3-.39-.08,0-.42.27-.46Zm-.31,1.58A2.19,2.19,0,0,0,20.12,28c.11-.62.24-.87.56-.88s.46.27.56.88a2.2,2.2,0,0,0,.89,1.42c.29.15,1.2.17,1,.71-.13.25-.3.74-.54.52s-.68-.8-.85-.84-.14.22-.07.31.39.53.55.72a.53.53,0,0,1-.1.85c-.36.17-.74-.05-.73-.24s-.17-1.14-.32-1.14-.13.22-.12.45c0,.51.28.9.24,1.16s-.09.51-.53.51-.49-.26-.53-.51.29-.65.24-1.16c0-.24,0-.45-.11-.45s-.34.84-.32,1.14-.37.42-.73.24a.53.53,0,0,1-.09-.85c.17-.19.46-.61.55-.72s.1-.34-.07-.31-.59.61-.84.84-.42-.27-.55-.52c-.19-.55.73-.56,1-.71Zm-.68,8a2.15,2.15,0,1,1,4.18,0c1.42-.41,3.3.28,2.84,2.73,1.62-.55,2.87.3,2.95,1.63a38.1,38.1,0,0,1-7.95,6.38,37.05,37.05,0,0,1-7.83-6.26c0-1.4,1.29-2.32,3-1.75-.46-2.44,1.42-3.13,2.84-2.73Zm-2.67-7.13A2.15,2.15,0,0,1,13.17,32a2.18,2.18,0,0,1-2.63,2.69A2,2,0,0,1,8.87,37.2a35.36,35.36,0,0,1-6.38-20h.43a2.29,2.29,0,0,1,2,2.7c1.29-.08,3,.21,2.71,2.69,1.88-.08,3,.61,2.75,2.73,1.59-.12,2.93.49,2.72,2.61,1.75,0,3,.89,2.75,2.4Zm-4.07-9.48c0,.27-.11.3-.39-.08s0-.43.28-.46.14.27.11.54ZM14,20.33c.31,0,.55.09.27.46s-.35.35-.38.08-.18-.57.11-.54Zm-.57.13a2.2,2.2,0,0,0,.89,1.41c.29.15,1.2.17,1,.71-.13.25-.29.74-.54.52s-.68-.8-.85-.83-.14.23-.07.3.38.53.55.73a.53.53,0,0,1-.09.84c-.37.17-.74-.05-.73-.24s-.17-1.14-.33-1.14-.13.22-.11.46c-.05.5.28.89.24,1.15s-.09.52-.53.51-.49-.26-.53-.51.3-.65.24-1.15c0-.24,0-.46-.11-.46s-.34.84-.33,1.14-.36.41-.73.24a.52.52,0,0,1-.1-.84c.17-.2.46-.61.55-.73s.1-.34-.07-.3-.59.61-.85.83-.42-.27-.54-.52c-.19-.54.73-.56,1-.71a2.19,2.19,0,0,0,.89-1.41c.11-.62.24-.88.56-.89s.46.27.56.89Z"/><polygon class="cls-2" points="1.25 1.24 1.25 14.7 39.93 14.7 39.93 1.24 1.25 1.24 1.25 1.24"/><path class="cls-3" d="M2.49,2.49v11h36.2v-11Zm12.39,7.62a.59.59,0,0,1-.45.51v.94a.18.18,0,0,1-.18.18H5.44a.18.18,0,0,1-.18-.18v-.94a.59.59,0,0,1-.45-.51.58.58,0,0,1,.45-.51V7a.59.59,0,0,1-.45-.51A.59.59,0,0,1,5.26,6V4.75a.17.17,0,0,1,.18-.18l.53.1s.64,0,1,0l.85,0a3.91,3.91,0,0,1,1.4.21c.35.16.62.31.69.69.08-.38.34-.53.7-.69a3.19,3.19,0,0,1,1.2-.21c.3,0,.85,0,.85,0,.39,0,1,0,1,0l.53-.1a.17.17,0,0,1,.18.18V6a.58.58,0,0,1,.45.51.58.58,0,0,1-.45.51V9.6a.58.58,0,0,1,.45.51Zm10.72,0a.58.58,0,0,1-.45.51v.94a.18.18,0,0,1-.18.18H16.17a.18.18,0,0,1-.18-.18v-.94a.59.59,0,0,1-.45-.51A.58.58,0,0,1,16,9.6V7a.59.59,0,0,1-.45-.51A.59.59,0,0,1,16,6V4.75a.17.17,0,0,1,.18-.18l.53.1s.64,0,1,0l.84,0a3.91,3.91,0,0,1,1.4.21c.35.16.62.31.69.69.08-.38.34-.53.7-.69a3.19,3.19,0,0,1,1.2-.21c.31,0,.84,0,.84,0,.39,0,1,0,1,0l.53-.1a.17.17,0,0,1,.18.18V6a.57.57,0,0,1,.45.51.58.58,0,0,1-.45.51V9.6a.57.57,0,0,1,.45.51Zm10.73,0a.59.59,0,0,1-.45.51v.94a.18.18,0,0,1-.18.18H26.9a.18.18,0,0,1-.18-.18v-.94a.6.6,0,0,1-.45-.51.58.58,0,0,1,.45-.51V7a.6.6,0,0,1-.45-.51A.59.59,0,0,1,26.72,6V4.75a.17.17,0,0,1,.18-.18l.53.1s.64,0,1,0h1c.55,0,1.72.17,2,.95.25-.7,1.15-.86,1.79-.95a7.23,7.23,0,0,1,1,0c.39,0,1,0,1,0l.53-.1a.17.17,0,0,1,.18.18V6a.58.58,0,0,1,.45.51.58.58,0,0,1-.45.51V9.6a.58.58,0,0,1,.45.51Z"/><path class="cls-1" d="M17.44,10.45V5a.26.26,0,0,1,0-.08H17.1A.14.14,0,0,0,17,5v5.95l.49-.41a.22.22,0,0,1,0-.08Zm-4.31.11.49.41V5a.14.14,0,0,0-.13-.11h-.36a.17.17,0,0,1,0,.08v5.49a.28.28,0,0,1,0,.11Zm4.57,0h2.87V6a1,1,0,0,0-.66-1,3.68,3.68,0,0,0-1.34-.2l-.7,0a.49.49,0,0,0-.15,0L17.62,5v5.48a.08.08,0,0,0,.08.07Zm-11-.07V5a.22.22,0,0,1,0-.08H6.36A.14.14,0,0,0,6.23,5v5.93l.48-.4a.45.45,0,0,1,0-.07Zm6.27,0V5h0l-.08,0a.55.55,0,0,0-.17-.05H12a3.65,3.65,0,0,0-1.35.2A1,1,0,0,0,10,6v4.51h2.88a.07.07,0,0,0,.08-.07Zm-6,.07H9.83V6h0a1,1,0,0,0-.66-1,3.67,3.67,0,0,0-1.33-.2l-.7,0a.51.51,0,0,0-.15,0L6.88,5v5.48a.08.08,0,0,0,.08.07Zm-.6.77A.29.29,0,0,1,6,11V5a.31.31,0,0,1,0-.14l-.5-.1a.17.17,0,0,0-.17.17V6.08c-.25,0-.45.19-.45.38s.2.34.45.38v2.9c-.25,0-.45.19-.45.38s.2.34.45.38v.9a.17.17,0,0,0,.17.17h3.8a.59.59,0,0,1-.11-.26Zm22.08-.78h5.94a.08.08,0,0,0,.07-.08V5h0l-.07,0-.16,0h-.13a5.27,5.27,0,0,0-1.72.23,1.13,1.13,0,0,0-.86,1.1h-.18a1.13,1.13,0,0,0-.86-1.1,5.26,5.26,0,0,0-1.72-.23h-.12a.56.56,0,0,0-.25.1v5.48a.08.08,0,0,0,.08.08Zm6.16,0,.51.42V5A.13.13,0,0,0,35,4.88H34.6a.29.29,0,0,1,0,.08v5.49a.23.23,0,0,1,0,.13ZM23.7,10.45V5h0l-.07,0a.53.53,0,0,0-.17-.05h-.69a3.65,3.65,0,0,0-1.35.2,1,1,0,0,0-.67,1v4.51h2.88a.07.07,0,0,0,.07-.07Zm.19,0a.23.23,0,0,1,0,.1l.49.41V5a.14.14,0,0,0-.13-.11h-.36a.33.33,0,0,1,0,.08v5.49Zm4.28,0V5a.22.22,0,0,1,0-.08h-.37a.13.13,0,0,0-.13.11v5.95l.48-.41a.27.27,0,0,1,0-.09Zm-2.76-4c0-.19-.19-.34-.45-.37V4.93a.17.17,0,0,0-.17-.17l-.33.06a.28.28,0,0,1,.06.17v6a.29.29,0,0,1-.31.28H21.15a.62.62,0,0,1-.11.26H24.8a.17.17,0,0,0,.17-.17v-.9c.26,0,.45-.19.45-.38s-.19-.34-.45-.38V6.83c.26,0,.45-.19.45-.38Zm2.41,4.83a.29.29,0,0,1-.3-.28V5a.25.25,0,0,1,0-.13l-.5-.1a.17.17,0,0,0-.17.17V6.08c-.26,0-.45.19-.45.38s.19.34.45.38v2.9c-.26,0-.45.19-.45.38s.19.34.45.38v.9a.17.17,0,0,0,.17.17h3.81a.63.63,0,0,1-.12-.27Zm.6-.58a.24.24,0,0,1-.13,0l-.51.43h3a.58.58,0,0,1,.27-.39Zm-7.85.1a.4.4,0,0,0-.4.39.4.4,0,0,0,.23.36h.34a.4.4,0,0,0,.23-.36.4.4,0,0,0-.39-.39Zm3.66.31-.51-.43-.11,0H20.9a.57.57,0,0,1,.25.4Zm7.07-.31a.4.4,0,0,0-.17.75h.34a.4.4,0,0,0,.23-.36.4.4,0,0,0-.4-.39ZM35.7,9.73V6.83c.26,0,.45-.19.45-.38s-.19-.34-.45-.38V4.93a.16.16,0,0,0-.16-.17l-.32.06a.29.29,0,0,1,.06.17v6a.29.29,0,0,1-.31.28H31.89a.6.6,0,0,1-.12.27h3.77a.17.17,0,0,0,.16-.17v-.9c.26,0,.45-.19.45-.38s-.19-.34-.45-.38Zm-.76,1.37-.5-.41-.08,0H31.62a.57.57,0,0,1,.27.39ZM17.7,10.71a.21.21,0,0,1-.13,0l-.52.44h3a.58.58,0,0,1,.26-.4Zm-4.19.4L13,10.69l-.11,0H10.16a.58.58,0,0,1,.25.4Zm1.18-4.66c0-.19-.19-.34-.45-.37V4.93a.17.17,0,0,0-.17-.17l-.33.06A.28.28,0,0,1,13.8,5v6a.29.29,0,0,1-.3.28H10.41a.64.64,0,0,1-.11.26h3.76a.17.17,0,0,0,.17-.17v-.9c.25,0,.45-.19.45-.38s-.19-.34-.45-.38V6.83c.25,0,.45-.19.45-.38ZM9.85,10.8a.39.39,0,0,0-.17.75H10a.4.4,0,0,0,.23-.36.4.4,0,0,0-.39-.39ZM7,10.71a.26.26,0,0,1-.14,0l-.51.44h3a.57.57,0,0,1,.26-.4Zm10.13.59a.29.29,0,0,1-.3-.28V5a.28.28,0,0,1,0-.14l-.51-.1a.17.17,0,0,0-.17.17V6.08c-.26,0-.45.19-.45.38s.19.34.45.38v2.9c-.26,0-.45.19-.45.38s.19.34.45.38v.9a.17.17,0,0,0,.17.17h3.81A.58.58,0,0,1,20,11.3Z"/><path class="cls-2" d="M11.44,9.17c-.19,0-.24,0-.24-.22V8c.29,0,.43.12.47.62h.07V7.25h-.07c0,.5-.19.6-.47.59V6.92c0-.17.05-.18.21-.18.39,0,.6.1.66.66h.07V6.6H10.47v.1c.13,0,.26,0,.26.28V8.91c0,.24-.09.25-.26.28v.1h1.7l.12-.83H12.2c-.18.61-.47.71-.76.71Z"/><path class="cls-2" d="M32.94,9.09c.09,0,.22.14.5.14a.76.76,0,0,0,.72-.84.87.87,0,0,0-.32-.73l-.42-.29c-.25-.16-.3-.25-.3-.47s.16-.38.31-.38c.34,0,.52.46.57.73h.08V6.39H34c0,.08,0,.14-.1.14s-.22-.13-.45-.13c-.55,0-.64.54-.64.79a.91.91,0,0,0,.5.85l.19.13c.19.12.32.22.32.48,0,.06,0,.45-.36.45s-.54-.45-.6-.85h-.08v1h.08c0-.07,0-.14.09-.14Z"/><path class="cls-2" d="M7.42,6.92l.74,2.39h.08L8.89,7c.07-.22.1-.3.26-.33v-.1H8.54v.1c.16,0,.25,0,.25.18a1.19,1.19,0,0,1-.06.28L8.36,8.41,8,7.15a1.82,1.82,0,0,1-.09-.34c0-.15.07-.15.25-.16v-.1h-1v.1c.12,0,.17,0,.24.28Z"/><path class="cls-2" d="M18.72,6.83c0-.13,0-.17.18-.17s.35.17.35.57-.15.6-.53.61v-1ZM19,9.12c-.19,0-.25,0-.25-.37V8h.08l.6,1.25H20v-.1A.12.12,0,0,1,19.87,9l-.58-1.13a.66.66,0,0,0,.45-.69.7.7,0,0,0-.81-.7H18v.1c.16,0,.26,0,.26.36V8.75c0,.32-.06.33-.26.37v.1h1v-.1Z"/><path class="cls-2" d="M29.32,6.65v2.1c0,.33-.07.34-.28.37v.1h1v-.1c-.22,0-.29,0-.29-.37V6.65c.2,0,.5,0,.56.67h.08v-.8H28.68v.8h.09c.06-.64.35-.66.56-.67Z"/><path class="cls-2" d="M31.28,7.3l.29,1H31l.27-1Zm-.21,1.81c-.1,0-.24,0-.24-.17A3.21,3.21,0,0,1,31,8.42h.65a3.09,3.09,0,0,1,.13.53c0,.13-.05.14-.23.16V9.2h.94V9.11c-.14,0-.18-.13-.32-.56L31.5,6.46h-.08l-.64,2.18c-.09.3-.13.44-.28.47V9.2h.59V9.11Z"/><path class="cls-2" d="M21.59,6.63c.13,0,.27,0,.27.28V8.83c0,.25-.11.26-.27.29v.1h1v-.1c-.16,0-.27,0-.27-.29V6.9c0-.27.14-.27.27-.28v-.1h-1v.1Z"/><path class="cls-2" d="M45.42,48.15V34.7h5.89c3.47,0,5.07,1.64,5.07,4.91a4.51,4.51,0,0,1-4.89,4.91H49.17v3.63Zm3.75-6.65H51c1.07,0,1.58-.64,1.58-1.8s-.53-1.85-1.58-1.85H49.17Z"/><path class="cls-2" d="M64.28,46.19c-.3,1.39-1.37,2.24-3.17,2.24s-3.27-1.19-3.27-3.68V37.6h3.7V44c0,1,.3,1.69,1.14,1.69s1.55-.87,1.55-2.58V37.6h3.7V48.15H64.62Z"/><path class="cls-2" d="M73,48.15h-3.2V34h3.7v5.14a3.36,3.36,0,0,1,3.33-1.78c2.54,0,4.09,2,4.09,5.28,0,3.63-1.67,5.8-4.52,5.8-1.64,0-2.67-.68-3-1.71Zm.48-4.52c0,1.53.87,2.15,1.69,2.15,1.21,0,2-1,2-2.9s-.69-2.72-1.83-2.72a1.94,1.94,0,0,0-1.85,2.19Z"/><path class="cls-2" d="M87.28,48a4.31,4.31,0,0,1-1.92.34c-1.58,0-3.13-.73-3.13-2.95V34h3.7V44.34c0,.64.25.91.73.91a1.52,1.52,0,0,0,.62-.14Z"/><path class="cls-2" d="M90.72,33a1.94,1.94,0,1,1-2,1.94,1.92,1.92,0,0,1,2-1.94m1.87,15.12H88.9V37.6h3.7Z"/><path class="cls-2" d="M97,44.52a1.64,1.64,0,0,0,1.67,1.32c.66,0,1.12-.23,1.12-.69s-.39-.66-1.14-.82L97.22,44c-1.92-.41-2.92-1.39-2.92-3.13,0-2.56,2.19-3.56,4.54-3.56,2.53,0,4.06,1.05,4.43,3l-3.36.5a1.07,1.07,0,0,0-1.19-.94c-.53,0-.89.25-.89.66s.3.62.84.71l1.42.25c2.33.39,3.31,1.64,3.31,3.43,0,2.49-2.17,3.45-4.77,3.45-2.4,0-4-.87-4.59-2.74Z"/><path class="cls-2" d="M108.7,39.61A3.2,3.2,0,0,1,112,37.35c1.67,0,3.13,1,3.13,3.38v7.42h-3.7V42.08c0-1-.25-1.67-1.17-1.67s-1.55.5-1.55,2.1v5.64H105V34h3.7Z"/><path class="cls-2" d="M118.72,33a1.94,1.94,0,1,1-2,1.94,1.92,1.92,0,0,1,2-1.94m1.87,15.12h-3.7V37.6h3.7Z"/><path class="cls-2" d="M126.11,39.63a3.27,3.27,0,0,1,3.36-2.28c1.62,0,3.08,1,3.08,3.38v7.42h-3.68v-6c0-1.07-.32-1.74-1.26-1.74s-1.48.48-1.48,2.1v5.64h-3.68V37.6h3.31Z"/><path class="cls-2" d="M144.73,37.6v9.8c0,3.9-2.58,5.57-6,5.57a5.51,5.51,0,0,1-4.5-2l1.89-2a3.36,3.36,0,0,0,2.6,1.07,2.17,2.17,0,0,0,2.35-2.37v-1.3A2.8,2.8,0,0,1,138.13,48c-2.35,0-4.27-1.6-4.27-5.14s1.69-5.55,4.68-5.55a3,3,0,0,1,2.83,1.53l.27-1.28Zm-3.65,4.34c0-1.23-.66-1.87-1.62-1.87-1.14,0-1.85.78-1.85,2.72,0,1.69.59,2.49,1.76,2.49.91,0,1.71-.59,1.71-2.08Z"/><path class="cls-2" d="M56.38,27.74c0,2.16-1.48,3.62-4.76,3.62H45.47V17.94h6c2.85,0,4.37,1.3,4.37,3.51a3,3,0,0,1-2.35,3,3.28,3.28,0,0,1,2.91,3.26m-7.22-4.21h1.44c1,0,1.55-.36,1.55-1.28S51.55,21,50.59,21H49.16Zm0,4.76h1.94c.93,0,1.46-.41,1.46-1.18s-.52-1.18-1.46-1.18H49.16Z"/><path class="cls-2" d="M64.47,29.4c-.3,1.39-1.37,2.23-3.17,2.23S58,30.45,57.61,28V20.84h4.12v6.36c0,1,.3,1.68,1.14,1.68s1.55-.86,1.55-2.57V20.84h3.69V31.36h-3.3Z"/><path class="cls-2" d="M72.26,27.74a1.63,1.63,0,0,0,1.66,1.32c.66,0,1.12-.23,1.12-.68s-.39-.66-1.14-.82l-1.41-.3c-1.91-.41-2.91-1.39-2.91-3.12,0-2.55,2.19-3.55,4.53-3.55,2.53,0,4.05,1,4.42,3l-3.35.5A1.07,1.07,0,0,0,74,23.16c-.52,0-.89.25-.89.66s.3.61.84.71l1.41.25c2.32.39,3.3,1.64,3.3,3.42,0,2.48-2.16,3.44-4.76,3.44-2.39,0-4-.86-4.58-2.73Z"/><path class="cls-2" d="M82,16.28a1.94,1.94,0,1,1-2,1.94,1.93,1.93,0,0,1,2-1.94m1.84,15.08H80.16V20.84h3.67Z"/><path class="cls-2" d="M89.15,22.86a3.26,3.26,0,0,1,3.35-2.28c1.62,0,3.07,1,3.07,3.37v7.4H91.91v-6c0-1.07-.32-1.73-1.25-1.73s-1.48.48-1.48,2.1v5.63H85.51V20.84h3.3Z"/><path class="cls-2" d="M103.82,27.56l3.05,1c-.59,2.25-2.46,3.12-4.56,3.12a5.07,5.07,0,0,1-5.4-5.42c0-3.55,2-5.63,5.31-5.63,3.12,0,4.71,2,4.71,4.92,0,.39,0,.84,0,1.32h-6.42c.07,1.3.71,2,1.8,2a1.47,1.47,0,0,0,1.55-1.28m-.36-2.6c0-.91-.32-1.71-1.34-1.71s-1.46.73-1.55,1.71Z"/><path class="cls-2" d="M111,27.74a1.63,1.63,0,0,0,1.66,1.32c.66,0,1.12-.23,1.12-.68s-.39-.66-1.14-.82l-1.41-.3c-1.91-.41-2.91-1.39-2.91-3.12,0-2.55,2.19-3.55,4.53-3.55,2.53,0,4.05,1,4.42,3l-3.35.5a1.07,1.07,0,0,0-1.18-.93c-.52,0-.89.25-.89.66s.3.61.84.71l1.41.25c2.32.39,3.3,1.64,3.3,3.42,0,2.48-2.16,3.44-4.76,3.44-2.39,0-4-.86-4.58-2.73Z"/><path class="cls-2" d="M121.53,27.74a1.63,1.63,0,0,0,1.66,1.32c.66,0,1.12-.23,1.12-.68s-.39-.66-1.14-.82l-1.41-.3c-1.91-.41-2.91-1.39-2.91-3.12,0-2.55,2.19-3.55,4.53-3.55,2.53,0,4.05,1,4.42,3l-3.35.5a1.07,1.07,0,0,0-1.18-.93c-.52,0-.89.25-.89.66s.3.61.84.71l1.41.25c2.32.39,3.3,1.64,3.3,3.42,0,2.48-2.16,3.44-4.76,3.44-2.39,0-4-.86-4.58-2.73Z"/><path class="cls-2" d="M68.18,11c0,.5.14.77.52.77a1.4,1.4,0,0,0,.66-.2v2.6a2.75,2.75,0,0,1-1.82.5A2.51,2.51,0,0,1,64.95,13a3.13,3.13,0,0,1-3,1.71,2.83,2.83,0,0,1-3.14-2.94c0-2.26,1.62-3.39,4.78-3.39h1.07V7.71c0-.68-.23-1.16-.89-1.16s-.93.39-1,1.25l-3.51-.55c.2-2.16,1.89-3.53,4.6-3.53,3,0,4.33,1.32,4.33,3.62Zm-3.55-.75h-.48c-1.32,0-1.78.41-1.78,1.09a.88.88,0,0,0,1,.89A1.18,1.18,0,0,0,64.63,11Z"/><path class="cls-2" d="M77.78,8.12a3,3,0,0,0-1.27-.27c-.87,0-1.91.34-1.91,2.21V14.5H70.92V4h3.14l.36,2.6C74.73,4.82,76.21,4,78,4Z"/><path class="cls-2" d="M79.1,4H83l1.21,4.24c.43,1.53.68,2.57.68,2.57h0s.23-1,.71-2.57L87,4h3.58L86.73,14.5h-4Z"/><path class="cls-2" d="M100,11c0,.5.14.77.52.77a1.4,1.4,0,0,0,.66-.2v2.6a2.75,2.75,0,0,1-1.82.5A2.51,2.51,0,0,1,96.72,13a3.13,3.13,0,0,1-3,1.71,2.83,2.83,0,0,1-3.14-2.94c0-2.26,1.62-3.39,4.78-3.39H96.4V7.71c0-.68-.23-1.16-.89-1.16s-.93.39-1,1.25L91,7.26c.21-2.16,1.89-3.53,4.6-3.53,3,0,4.33,1.32,4.33,3.62Zm-3.55-.75h-.48c-1.32,0-1.78.41-1.78,1.09a.88.88,0,0,0,1,.89A1.18,1.18,0,0,0,96.4,11Z"/><path class="cls-2" d="M109.34,8.12a3,3,0,0,0-1.28-.27c-.87,0-1.91.34-1.91,2.21V14.5h-3.67V4h3.14l.36,2.6c.3-1.75,1.78-2.6,3.58-2.6Z"/><path class="cls-2" d="M118,.42h3.69V14.5h-3.33L118,12.68a3,3,0,0,1-3.23,2.1c-2.46,0-4.21-1.91-4.21-5.33s1.68-5.72,4.65-5.72A2.78,2.78,0,0,1,118,5.34Zm0,8.06c0-1.34-.66-2.07-1.73-2.07s-2,.8-2,2.89c0,1.73.73,2.64,1.94,2.64.93,0,1.78-.71,1.78-2.14Z"/><polygon class="cls-2" points="45.47 14.5 45.47 1.08 49.2 1.08 49.2 6.07 53.8 6.07 53.8 1.08 57.54 1.08 57.54 14.5 53.8 14.5 53.8 9.31 49.2 9.31 49.2 14.5 45.47 14.5"/><path class="cls-3" d="M53.54,65.83h-8V52.39h8v1.55H47.29v4.4h5.54V59.9H47.29v4.38h6.25Z"/><path class="cls-3" d="M62.29,52.27H64V65.83H62.52L62.32,64a3.26,3.26,0,0,1-3.38,2.1c-2.14,0-4.15-1.78-4.15-5.38S56.5,55,59.51,55a2.9,2.9,0,0,1,2.78,1.69Zm0,7a2.72,2.72,0,0,0-2.78-2.83c-1.69,0-3,1.14-3,4.29,0,2.62,1.16,4,3,4a2.87,2.87,0,0,0,2.81-3Z"/><path class="cls-3" d="M72.66,63.93a3,3,0,0,1-3.24,2.17c-1.92,0-3.19-1-3.19-3.51v-7.3H68v7.14c0,1.66.64,2.39,2,2.39a2.87,2.87,0,0,0,2.62-3.12V55.29h1.73V65.83H72.86Z"/><path class="cls-3" d="M84.68,63.23c-.34,2.12-2,2.87-4,2.87-2.67,0-4.52-1.94-4.52-5.47S78,55,80.85,55c2.17,0,3.56,1.12,3.7,3.24l-1.62.25a2.09,2.09,0,0,0-2.19-2.05c-1.92,0-2.92,1.73-2.92,4.17s1.19,4.06,3,4.06a2.25,2.25,0,0,0,2.37-1.8Z"/><path class="cls-3" d="M93.63,63.57c0,.82.39,1,.8,1a1.37,1.37,0,0,0,.57-.09v1.39a3.37,3.37,0,0,1-.94.14A1.81,1.81,0,0,1,92,64.27a3.15,3.15,0,0,1-3.12,1.82c-1.85,0-3.17-1-3.17-2.83,0-2.33,1.78-3.7,6.18-3.49V58.37c0-1.41-.91-1.92-2.12-1.92a1.85,1.85,0,0,0-2.12,1.76L86.06,58C86.22,55.75,88.2,55,90,55s3.65.73,3.65,3.17ZM91.9,61c-3.06-.07-4.45.59-4.45,2.05a1.64,1.64,0,0,0,1.85,1.69c1.21,0,2.6-.75,2.6-2.05Z"/><path class="cls-3" d="M101.88,65.51a4.46,4.46,0,0,1-2.33.59,2.59,2.59,0,0,1-2.9-2.83V56.68H95.13V55.29h1.53V52.66l1.76-.23v2.85h3.12v1.39H98.39V63c0,1.16.52,1.66,1.41,1.66a2.84,2.84,0,0,0,1.73-.55Z"/><path class="cls-3" d="M105.25,55.29V65.83h-1.73V55.29Z"/><path class="cls-3" d="M106.93,60.49c0-3.58,1.85-5.45,4.7-5.45s4.7,1.87,4.7,5.45-1.85,5.61-4.7,5.61S106.93,64.09,106.93,60.49Zm1.71,0c0,2.81,1,4.24,3,4.24s3-1.44,3-4.24-1-4-3-4S108.64,57.75,108.64,60.49Z"/><path class="cls-3" d="M119.76,57.32A3.3,3.3,0,0,1,123.14,55a3,3,0,0,1,3.24,3.24v7.55h-1.73V58.71c0-1.35-.68-2.17-2-2.17s-2.67.73-2.67,3.15v6.13h-1.73V55.29h1.3Z"/><path class="cls-3" d="M104.36,51.14a1.24,1.24,0,1,1,0,2.49,1.24,1.24,0,0,1,0-2.49Z"/></g></g></svg>